<?xml version="1.0" encoding="UTF-8"?>
<svg xmlns="http://www.w3.org/2000/svg" width="161" height="30.053" viewBox="0 0 161 30.053">
  <g id="Logo_aston_itm" data-name="Logo_aston itm" transform="translate(0.5 0.5)">
    <path id="aston" d="M45.03,11.7c0-4.652,3.716-7.812,9.129-7.812,5.589,0,9.159,3.1,9.159,8.017,0,4.565-3.95,7.813-9.422,7.813C48.6,19.722,45.03,16.532,45.03,11.7Zm5.384,0c0,2.634,1.434,4.185,3.745,4.185,2.282,0,3.746-1.551,3.746-4.009,0-2.633-1.4-4.184-3.746-4.184C51.907,7.7,50.414,9.217,50.414,11.7ZM34.088,14.6V7.784h-2.75V4.243h2.75V0h5.179V4.243H44.3v3.54H39.267V14.63c0,.878.585,1.258,2.048,1.258a9.19,9.19,0,0,0,2.546-.439v3.775a21.375,21.375,0,0,1-4.038.5C36.106,19.722,34.088,17.937,34.088,14.6ZM18.4,18.9V15.444a17.147,17.147,0,0,0,5.208.8c1.17,0,1.872-.409,1.872-1.14,0-1.9-6.993-1.112-6.993-6.379,0-3.482,2.838-4.828,6.671-4.828a34.34,34.34,0,0,1,4.594.342V7.713a37.216,37.216,0,0,0-4.476-.339c-1.025,0-1.785.292-1.785,1.024,0,1.843,7.081,1.375,7.081,6.291,0,3.511-3.043,5.033-7.257,5.033A14.722,14.722,0,0,1,18.4,18.9Zm-7.695-1.141H10.68a6.594,6.594,0,0,1-5.033,1.872C2.077,19.633,0,17.849,0,14.865c0-3.277,2.458-5.15,6.73-5.15h3.453V9.568c0-1.316-.966-1.872-3.365-1.872a31.565,31.565,0,0,0-5,.5V4.565a27.879,27.879,0,0,1,5.97-.673c5.325,0,7.548,1.7,7.548,5.794v5.249c0,.614.381.7.907.7a6.092,6.092,0,0,0,.7-.059v3.47a8.667,8.667,0,0,1-2.9.585C12.465,19.633,11.266,19.165,10.709,17.761ZM5.267,14.425c0,.907.468,1.492,2.019,1.492a5.729,5.729,0,0,0,2.9-.673V12.582H7.93C6.115,12.582,5.267,13.255,5.267,14.425Zm71.1,4.828V10.1c0-1.726-.673-2.34-2.78-2.34a6.318,6.318,0,0,0-3.219.79V19.254H65.19V4.243h4.74V6.028h.088a9.471,9.471,0,0,1,6-2.136c3.745,0,5.53,1.96,5.53,5.881v9.48Z" transform="translate(0 9.331)" fill="#0074d9" stroke="rgba(0,0,0,0)" stroke-width="1"></path>
    <path id="itm" d="M7.227,16.62V7.11H4.067V5.676h3.16V1.7h1.99V5.676h5.764V7.11H9.217v9.539c0,1.726,1.023,2.458,2.926,2.458a13.322,13.322,0,0,0,2.78-.322v1.522a13.19,13.19,0,0,1-3.307.38C8.749,20.687,7.227,19.283,7.227,16.62Zm32.215,3.687v-9.1c0-2.663-1.58-4.185-4.331-4.185a7.68,7.68,0,0,0-4.828,1.814,3.668,3.668,0,0,1,.2,1.316V20.307H28.469v-9.1c0-2.722-1.522-4.185-4.33-4.185a7.286,7.286,0,0,0-4.623,1.7V20.307H17.5V5.677H19.34V7.549H19.4a8.945,8.945,0,0,1,5.443-2.107c2.4,0,4.213.878,5.091,2.429a9.1,9.1,0,0,1,5.881-2.429c3.6,0,5.648,1.844,5.648,5.208v9.656ZM0,20.307V5.677H2.019v14.63ZM0,2.78V0H2.019V2.78Z" transform="translate(86.813 8.277)" fill="#ff4136" stroke="rgba(0,0,0,0)" stroke-width="1"></path>
    <path id="symbol" d="M3.142,17.6A3.146,3.146,0,0,1,0,14.454V3.142A3.146,3.146,0,0,1,3.142,0H22.183a3.146,3.146,0,0,1,3.142,3.142V14.454A3.146,3.146,0,0,1,22.183,17.6ZM2.061,3.142V14.454a1.082,1.082,0,0,0,1.081,1.081H22.183a1.083,1.083,0,0,0,1.082-1.081V3.142a1.083,1.083,0,0,0-1.082-1.081H3.142A1.082,1.082,0,0,0,2.061,3.142Zm2.89,10.086L15.221,8.821,4.949,4.362h5.174l10.3,4.471-10.245,4.4Z" transform="translate(134.675)" fill="#0074d9" stroke="rgba(0,0,0,0)" stroke-width="1"></path>
  </g>
</svg>
